<mxfile host="app.diagrams.net" modified="2022-09-12T22:37:34.166Z" agent="5.0 (Windows NT 10.0; Win64; x64) AppleWebKit/537.36 (KHTML, like Gecko) Chrome/105.0.0.0 Safari/537.36" etag="ZZlTzThIKZMTqnqiugqf" version="20.3.0" type="github">
  <diagram id="I5eKqsEkzyrb4Bzu7iN5" name="Page-1">
    <mxGraphModel dx="782" dy="399" grid="1" gridSize="10" guides="1" tooltips="1" connect="1" arrows="1" fold="1" page="1" pageScale="1" pageWidth="827" pageHeight="1169" math="0" shadow="0">
      <root>
        <mxCell id="0" />
        <mxCell id="1" parent="0" />
        <mxCell id="-YysOseQmmm7MDm0JTXH-1" value="static void Method (Â Parameter )" style="swimlane;" vertex="1" parent="1">
          <mxGeometry x="330" y="90" width="320" height="210" as="geometry" />
        </mxCell>
        <mxCell id="-YysOseQmmm7MDm0JTXH-2" value="" style="html=1;shadow=0;dashed=0;align=center;verticalAlign=middle;shape=mxgraph.arrows2.jumpInArrow;dy=4.95;dx=39.22;arrowHead=36.89;rotation=-90;" vertex="1" parent="-YysOseQmmm7MDm0JTXH-1">
          <mxGeometry y="142.5" width="75" height="57.5" as="geometry" />
        </mxCell>
        <mxCell id="-YysOseQmmm7MDm0JTXH-3" value="return&amp;nbsp; &amp;nbsp; &amp;nbsp;;" style="text;html=1;align=center;verticalAlign=middle;resizable=0;points=[];autosize=1;strokeColor=none;fillColor=none;" vertex="1" parent="-YysOseQmmm7MDm0JTXH-1">
          <mxGeometry x="49" y="180" width="70" height="30" as="geometry" />
        </mxCell>
      </root>
    </mxGraphModel>
  </diagram>
</mxfile>
